<?xml version="1.0" encoding="utf-8"?>
<!-- Generator: Adobe Illustrator 26.3.1, SVG Export Plug-In . SVG Version: 6.00 Build 0)  -->
<svg version="1.1" id="Layer_1" xmlns="http://www.w3.org/2000/svg" xmlns:xlink="http://www.w3.org/1999/xlink" x="0px" y="0px"
	 viewBox="0 0 1302 603.3" style="enable-background:new 0 0 1302 603.3;" xml:space="preserve">
<style type="text/css">
	.st0{fill:#02C652;}
	.st1{fill-rule:evenodd;clip-rule:evenodd;fill:#02C652;}
	.st2{fill:#212C43;}
	.st3{clip-path:url(#SVGID_00000127726643973901619430000006041544786297392006_);fill:#212C43;}
	.st4{clip-path:url(#SVGID_00000021828600067965945670000001699367306918182272_);fill:#212C43;}
	.st5{clip-path:url(#SVGID_00000005233862107700414440000002961506069903290496_);fill:#212C43;}
	.st6{clip-path:url(#SVGID_00000116230109749883208290000009099654175808462731_);fill:#212C43;}
	
		.st7{clip-path:url(#SVGID_00000182517648592244232010000015457011021378756763_);fill:url(#SVGID_00000030470083059153584980000003134134051616595849_);}
	.st8{fill:none;stroke:#E6E7E8;stroke-width:2;stroke-miterlimit:10;}
</style>
<path class="st0" d="M955.3,70h-16.8v19.6h16.8v57.2h23.5V89.6H999V70h-20.2v-4.2c0-2.9,0.9-5.1,2.8-6.5c1.8-1.4,4.6-2.1,8.1-2.1
	c1.5,0,3,0.1,4.4,0.2c1.6,0.2,3.3,0.5,4.9,0.8V38.8c-1.9-0.5-3.9-0.8-5.9-1c-2.2-0.3-4.4-0.4-6.6-0.4c-10.1,0-17.8,2.4-23.2,7.3
	c-5.4,4.8-8.1,11.8-8.1,20.8V70z"/>
<path class="st0" d="M545.8,131.3l13.9-18.2c5.2,4.4,11,8,17.1,10.7c5.3,2.2,11,3.4,16.7,3.3c5.7,0,10.2-0.9,13.4-2.6
	c3.2-1.7,4.9-4.2,4.9-7.3c0.1-1.3-0.2-2.5-0.8-3.7c-0.6-1.1-1.4-2.1-2.5-2.8c-2.2-1.5-5.8-2.8-10.8-3.6l-22.4-3.9
	c-8.2-1.5-14.6-4.6-19-9.4c-4.5-4.8-6.7-11-6.7-18.4c0-9.8,3.7-17.5,11.1-23.2c7.4-5.7,17.6-8.5,30.6-8.5c7.8,0,15.5,1.4,22.9,3.9
	c7.2,2.3,13.9,5.9,19.8,10.6l-13.2,18.4c-4.7-3.8-10-6.9-15.6-9.2c-5-1.9-10.3-2.9-15.6-2.9c-5,0-9,0.8-12,2.4
	c-3,1.6-4.4,3.8-4.4,6.5c0,1.1,0.2,2.3,0.7,3.3c0.5,1,1.2,1.9,2.2,2.6c1.9,1.4,5,2.4,9.2,3.1l21.1,3.5c9.8,1.6,17.2,4.8,22.3,9.7
	c5.1,4.9,7.6,11.3,7.6,19.2c0,10.3-4,18.4-12,24.4c-8,6-18.9,9-32.6,9c-8.3,0-16.6-1.6-24.3-4.5
	C559.5,140.9,552.2,136.7,545.8,131.3z"/>
<path class="st0" d="M280.3,146.8L239.2,45.2h27l28.9,75.7l29.5-75.7h26l-41.7,101.7H280.3z"/>
<path class="st0" d="M372.6,70v44.2c-0.1,1.9,0.2,3.7,0.8,5.5c0.7,1.7,1.7,3.3,3,4.6c1.3,1.3,2.9,2.3,4.6,3c1.7,0.7,3.6,1,5.5,0.8
	c2.7,0.1,5.5-0.5,8-1.6c2.3-1,4.3-2.6,5.8-4.5V70h23.5v76.8h-23.5v-5.2c-2.9,2.2-6.1,3.8-9.5,4.9c-3.6,1.2-7.3,1.8-11.1,1.7
	c-9,0-16.4-2.9-22.1-8.7c-5.7-5.8-8.6-13.2-8.6-22.2V70H372.6z"/>
<path class="st1" d="M493.9,145.5c5.4-2.1,10.5-5.1,14.9-8.9l-15.5-13.8c-1.9,1.9-4.2,3.3-6.7,4.3c-2.8,1-5.7,1.6-8.7,1.5
	c-4.1,0.1-8.2-1.1-11.6-3.4c-3.2-2.2-5.7-5.2-7.3-8.8h54.8v-5.8c0-5.7-0.9-11.4-2.9-16.8c-1.8-4.9-4.5-9.4-8.1-13.3
	c-3.6-3.8-7.9-6.8-12.7-8.9c-4.8-2.1-10-3.1-15.2-3c-5.4,0-10.8,1-15.8,3.1c-4.8,1.9-9.1,4.8-12.7,8.4c-3.6,3.6-6.5,8-8.5,12.7
	c-2.1,4.9-3.2,10.3-3.1,15.6c0,5.4,1.1,10.7,3.3,15.6c2.1,4.8,5.1,9.1,8.9,12.7c3.8,3.7,8.3,6.5,13.3,8.4c5.2,2.1,10.8,3.1,16.4,3.1
	C482.5,148.4,488.4,147.4,493.9,145.5z M464.5,91.1c2.9-2.2,6.4-3.3,10-3.2c3.6-0.1,7.1,1.1,10,3.3c2.9,2.3,5,5.4,6.2,8.9h-32.1
	C459.5,96.5,461.6,93.3,464.5,91.1z"/>
<path class="st0" d="M654.6,89.6v33.8c0,8,2.3,14.1,7,18.2c4.7,4.1,11.6,6.2,20.8,6.2c2.8,0,5.5-0.3,8.3-0.7
	c2.8-0.3,5.5-0.9,8.1-1.7v-19c-1.8,0.5-3.6,1-5.4,1.2c-1.7,0.2-3.5,0.4-5.2,0.4c-3.8,0-6.4-0.7-7.9-2.1c-1.5-1.4-2.3-3.8-2.3-7.2
	V89.6h21.5V70h-21.5V45.2l-23.5,5.1V70h-15.5v19.6H654.6z"/>
<path class="st1" d="M705.3,108.5c0-5.4,1.1-10.7,3.3-15.6c2.1-4.8,5.1-9.1,8.9-12.7c3.8-3.6,8.3-6.5,13.2-8.5
	c10.5-4.2,22.2-4.2,32.7,0c4.9,2,9.4,4.9,13.2,8.5c3.8,3.6,6.8,7.9,8.9,12.7c2.2,4.9,3.3,10.2,3.3,15.6c0,5.4-1.1,10.7-3.3,15.6
	c-2.1,4.8-5.1,9.1-8.9,12.7c-3.8,3.6-8.3,6.5-13.2,8.4c-10.5,4.1-22.2,4.1-32.7,0c-4.9-1.9-9.4-4.8-13.2-8.4
	c-3.8-3.6-6.8-7.9-8.9-12.7C706.4,119.2,705.3,113.9,705.3,108.5z M747,127.9c2.5,0,5-0.4,7.2-1.4s4.3-2.4,6-4.2
	c3.5-3.8,5.4-8.7,5.4-13.9c0-5.1-1.9-10.1-5.4-13.9c-1.7-1.8-3.8-3.2-6.1-4.2s-4.7-1.5-7.2-1.5c-2.5,0-4.9,0.5-7.2,1.5
	s-4.3,2.4-6.1,4.2c-3.5,3.8-5.4,8.7-5.4,13.9c0,5.1,1.9,10.1,5.4,13.9c1.7,1.8,3.8,3.3,6,4.2C742,127.5,744.5,128,747,127.9z"/>
<path class="st0" d="M799.7,70v76.8h23.5V98c1.9-3,4.5-5.4,7.6-7.1c3.1-1.7,6.7-2.6,10.2-2.6c2,0,4,0.2,6,0.7
	c1.8,0.4,3.5,0.9,5.2,1.7V70.1c-1-0.7-2.2-1.2-3.5-1.4c-1.8-0.3-3.6-0.5-5.4-0.5c-3.9-0.1-7.8,0.8-11.3,2.5c-3.4,1.7-6.4,4-8.9,7V70
	H799.7z"/>
<path class="st1" d="M930,136.7c-4.4,3.8-9.4,6.8-14.9,8.9c-5.5,1.9-11.4,2.8-17.2,2.8c-5.6,0-11.2-1-16.4-3.1
	c-4.9-1.9-9.5-4.8-13.3-8.4c-3.8-3.6-6.8-7.9-8.9-12.7c-2.2-4.9-3.3-10.2-3.3-15.6c0-5.4,1-10.7,3.1-15.6c2-4.7,4.9-9.1,8.5-12.7
	c3.6-3.6,8-6.5,12.7-8.4c5-2.1,10.4-3.1,15.8-3.1c5.2-0.1,10.4,1,15.2,3c4.8,2.1,9.1,5.1,12.7,8.9c3.5,3.9,6.3,8.4,8.1,13.3
	c2,5.4,3,11.1,2.9,16.8v5.8h-54.8c1.5,3.6,4.1,6.6,7.3,8.8c3.4,2.3,7.5,3.5,11.6,3.4c3,0,5.9-0.5,8.7-1.5c2.5-0.9,4.8-2.4,6.7-4.3
	L930,136.7z M895.7,87.9c-3.6-0.1-7.1,1-10,3.2c-2.9,2.3-5,5.4-6,9h32.1c-1.1-3.5-3.3-6.6-6.2-8.9C902.8,89,899.3,87.8,895.7,87.9z"
	/>
<path class="st0" d="M1008.9,146.8V70h23.5v7.7c2.4-2.9,5.4-5.3,8.9-7c3.5-1.7,7.4-2.5,11.3-2.5c1.8,0.1,3.6,0.2,5.4,0.5
	c1.2,0.2,2.4,0.7,3.5,1.4v20.5c-1.7-0.7-3.4-1.3-5.2-1.7c-1.9-0.4-3.9-0.7-5.9-0.7c-3.6,0-7.1,0.9-10.2,2.6
	c-3.1,1.7-5.7,4.1-7.6,7.1v48.8H1008.9z"/>
<path class="st1" d="M1068.5,92.9c-2.2,4.9-3.3,10.2-3.3,15.6c0,5.4,1.1,10.7,3.3,15.6c2.1,4.8,5.1,9.1,8.9,12.7
	c3.8,3.6,8.3,6.5,13.2,8.4c10.5,4.1,22.2,4.1,32.7,0c4.9-1.9,9.4-4.8,13.2-8.4c3.8-3.6,6.8-7.9,8.9-12.7c2.2-4.9,3.3-10.2,3.3-15.6
	c0-5.4-1.1-10.7-3.3-15.6c-2.1-4.8-5.1-9.1-8.9-12.7c-3.8-3.6-8.3-6.5-13.2-8.5c-10.5-4.2-22.2-4.2-32.7,0c-4.9,2-9.4,4.9-13.2,8.5
	C1073.6,83.8,1070.6,88.1,1068.5,92.9z M1114.2,126.5c-2.3,1-4.8,1.5-7.2,1.4c-2.5,0-5-0.4-7.2-1.4c-2.3-1-4.4-2.4-6.1-4.2
	c-3.5-3.8-5.4-8.7-5.4-13.9c0-5.1,1.9-10.1,5.4-13.9c1.7-1.8,3.8-3.2,6.1-4.2c2.3-1,4.7-1.5,7.2-1.5c2.5,0,4.9,0.5,7.2,1.5
	c2.3,1,4.3,2.4,6.1,4.2c3.5,3.8,5.5,8.7,5.5,13.9c0,5.1-1.9,10.1-5.5,13.9C1118.5,124.1,1116.5,125.6,1114.2,126.5z"/>
<path class="st0" d="M1159.7,70h23.5v5.2c2.9-2.2,6.1-3.8,9.5-4.9c3.6-1.2,7.3-1.8,11.1-1.7c9,0,16.4,2.9,22.1,8.7
	c5.7,5.8,8.6,13.2,8.6,22.2v47.4h-23.5v-44.2c0.1-1.9-0.2-3.7-0.8-5.5c-0.7-1.7-1.7-3.3-3-4.6c-1.3-1.3-2.9-2.3-4.6-3
	c-1.7-0.7-3.6-1-5.5-0.8c-2.8-0.1-5.5,0.5-8,1.6c-2.3,1-4.3,2.6-5.8,4.5v52h-23.5V70z"/>
<path class="st0" d="M1256.4,89.6v33.8c0,8,2.3,14.1,7,18.2c4.7,4.1,11.6,6.2,20.8,6.2c2.8,0,5.5-0.3,8.3-0.7
	c2.8-0.3,5.5-0.9,8.1-1.7v-19c-1.8,0.5-3.6,1-5.4,1.2c-1.7,0.2-3.5,0.4-5.2,0.4c-3.8,0-6.4-0.7-7.9-2.1c-1.5-1.4-2.2-3.8-2.2-7.2
	V89.6h21.5V70h-21.5V45.2l-23.5,5.1V70h-15.6v19.6H1256.4z"/>
<path class="st0" d="M79.2,5.9c-1.6,1-3.1,2.5-6.2,5.6c-3.1,3.1-4.6,4.6-5.6,6.2c-3.2,5.2-3.2,11.8,0,17c1,1.6,2.5,3.1,5.6,6.2l0,0
	c3.1,3.1,4.6,4.6,6.2,5.6c5.2,3.2,11.8,3.2,17,0c1.6-1,3.1-2.5,6.2-5.6c3.1-3.1,4.6-4.6,5.6-6.2c3.2-5.2,3.2-11.8,0-17
	c-1-1.6-2.5-3.1-5.6-6.2c-3.1-3.1-4.6-4.6-6.2-5.6C91,2.7,84.4,2.7,79.2,5.9z"/>
<path class="st0" d="M99.5,102.3l35.9-35.9c1.5-1.5,3.2-2.7,5.2-3.5c1.9-0.8,4-1.2,6.1-1.2c2.1,0,4.2,0.4,6.1,1.2
	c1.9,0.8,3.7,2,5.2,3.5l18,18c-0.1,0.1-88,88-88,88l-88-88c0.2-0.2,10-10,18.2-18.2c1.5-1.5,3.2-2.7,5.2-3.5c1.9-0.8,4-1.2,6.1-1.2
	c2.1,0,4.2,0.4,6.1,1.2c1.9,0.8,3.7,2,5.2,3.5l36,36c1.5,1.5,3.2,2.7,5.2,3.5s4,1.2,6.1,1.2c2.1,0,4.2-0.4,6.1-1.2
	S98,103.8,99.5,102.3z"/>
<path class="st0" d="M301.4,217.3c-9.4,0-16.5-7.4-16.5-17.1c0-9.8,7-17.3,16.3-17.3c5,0,9.7,2.4,13.1,6.6l5.5-5.4
	c-4.4-5.3-11.3-8.4-18.6-8.4c-13.9,0-24.6,10.7-24.6,24.5c0,13.7,10.7,24.5,24.6,24.5c7.1,0,13.9-3.1,18.4-8.4l-5.4-5.2
	C310.8,215.2,306.3,217.3,301.4,217.3z"/>
<path class="st0" d="M417.7,200.2c0-13.7-10.6-24.5-24.1-24.5c-13.5,0-24.1,10.8-24.1,24.5c0,13.7,10.6,24.5,24.1,24.5
	C407.1,224.7,417.7,213.9,417.7,200.2z M409.3,200.2c0,9.8-6.7,17.2-15.6,17.2c-8.9,0-15.8-7.4-15.8-17.2c0-9.8,6.9-17.3,15.8-17.3
	C402.6,182.9,409.3,190.4,409.3,200.2z"/>
<path class="st0" d="M496.2,220.6l16.9-33.7V224h7.7v-47.6h-10.6l-13.9,28.8l-13.9-28.8h-10.6V224h7.5v-37.3L496.2,220.6z"/>
<path class="st0" d="M601.6,220.6l16.9-33.7V224h7.7v-47.6h-10.6l-13.9,28.8l-13.9-28.8h-10.6V224h7.5v-37.3L601.6,220.6z"/>
<path class="st0" d="M721.6,203.6v-27.2h-8.2v27.2c0,8.4-4.6,13.7-11.8,13.7s-11.9-5.4-11.9-13.7v-27.2h-8.2v27.2
	c0,13,7.8,21.1,20,21.1S721.6,216.5,721.6,203.6z"/>
<path class="st0" d="M776.9,176.4V224h7.7l-0.1-35.5L810,224h7.3v-47.6h-7.7l0.1,34.5l-24.8-34.5H776.9z"/>
<path class="st0" d="M873.1,224h8.2v-47.6h-8.2V224z"/>
<path class="st0" d="M933.2,183.5h16V224h8.2v-40.5h15.8v-7.1h-40V183.5z"/>
<path class="st0" d="M1039.8,224h8.2v-18.6l19-29h-8.9l-13.9,21.8l-13.7-21.8h-9.5l18.8,28.8V224z"/>
<g>
	<polygon class="st2" points="725.5,535.6 725.5,471.9 700.6,505.9 675.9,471.9 675.9,535.6 658.1,535.6 658.1,440.3 674.8,440.3 
		700.6,475.8 726.5,440.3 743.3,440.3 743.3,535.6 	"/>
	<g>
		<g>
			<defs>
				<rect id="SVGID_1_" x="289.9" y="365.4" width="722.3" height="222.5"/>
			</defs>
			<clipPath id="SVGID_00000116229136942110632000000008869711745981284792_">
				<use xlink:href="#SVGID_1_"  style="overflow:visible;"/>
			</clipPath>
			<path style="clip-path:url(#SVGID_00000116229136942110632000000008869711745981284792_);fill:#212C43;" d="M769.1,527.7
				c-6-6.3-9.4-14.5-9.4-22.7c0-8.4,3.3-16.6,9.4-22.7c6.2-5.9,14.2-9.2,22.7-9.2c8.8,0,16.9,3.3,22.6,9.2
				c6.2,6.2,9.5,14.2,9.5,22.7c0,8.6-3.3,16.6-9.5,22.7c-6,6-14.1,9.4-22.6,9.4C783.6,537.1,775.4,533.8,769.1,527.7 M775.6,505
				c0,9.2,7.4,16.7,16.3,16.7c9.1,0,16.5-7.5,16.5-16.7s-7.4-16.7-16.5-16.7C782.9,488.3,775.6,495.7,775.6,505"/>
		</g>
		<g>
			<defs>
				<rect id="SVGID_00000158711937484301982860000013652455185381371316_" x="289.9" y="365.4" width="722.3" height="222.5"/>
			</defs>
			<clipPath id="SVGID_00000158000395054498655610000011548690625822684606_">
				<use xlink:href="#SVGID_00000158711937484301982860000013652455185381371316_"  style="overflow:visible;"/>
			</clipPath>
			<path style="clip-path:url(#SVGID_00000158000395054498655610000011548690625822684606_);fill:#212C43;" d="M925.7,529.1
				c-5.5-5.2-8.4-12.3-8.4-19.9v-34.8h16.9v34.8c0,6.3,5.2,11.4,11.8,11.4c6.6,0,11.9-5.1,11.9-11.4v-34.8h16.9v34.8
				c0,7.5-3.1,14.6-8.6,19.9c-5.4,5.2-12.4,8-20.2,8S930.9,534.3,925.7,529.1"/>
		</g>
		<g>
			<defs>
				<rect id="SVGID_00000052066276329184172350000012722559124360690817_" x="289.9" y="365.4" width="722.3" height="222.5"/>
			</defs>
			<clipPath id="SVGID_00000065785466185967894460000014748413482149985678_">
				<use xlink:href="#SVGID_00000052066276329184172350000012722559124360690817_"  style="overflow:visible;"/>
			</clipPath>
			<path style="clip-path:url(#SVGID_00000065785466185967894460000014748413482149985678_);fill:#212C43;" d="M991.4,456.7
				c0-2.8,1.1-5.4,3.1-7.2c2-2,4.5-3.1,7.4-3.1c5.6,0,10.3,4.7,10.3,10.3c0,5.6-4.7,10.3-10.3,10.3
				C996.1,467,991.4,462.3,991.4,456.7 M993.1,474.3h17.4v61.3h-17.4V474.3z"/>
		</g>
		<g>
			<defs>
				<rect id="SVGID_00000101070215607671867480000017899678886976647863_" x="289.9" y="365.4" width="722.3" height="222.5"/>
			</defs>
			<clipPath id="SVGID_00000111157053084088430810000002574952522107045252_">
				<use xlink:href="#SVGID_00000101070215607671867480000017899678886976647863_"  style="overflow:visible;"/>
			</clipPath>
			<path style="clip-path:url(#SVGID_00000111157053084088430810000002574952522107045252_);fill:#212C43;" d="M883.1,530.8l0.5-0.5
				v32.4h16.6v-88.4h-16.6v4.9l-0.5-0.7c-4.8-4.7-10.2-5.4-15-5.4c-8.4,0-16.4,3.2-22.6,9.2c-6,6.2-9.3,14.2-9.3,22.6
				s3.4,16.5,9.4,22.6c6,6,14,9.2,22.5,9.2C873.6,536.8,878.7,534.8,883.1,530.8 M852.3,505c0-8.8,7.2-16.2,15.8-16.2
				s15.8,7.4,15.8,16.2c0,8.7-7.2,16.2-15.8,16.2S852.3,513.7,852.3,505"/>
		</g>
	</g>
	<g>
		<g>
			<defs>
				<path id="SVGID_00000148648030745650009810000016841665713908838037_" d="M308.5,465.1c4.3-2.1,7.3-6.5,7.3-11.6
					c0-2-0.5-3.9-1.3-5.6l46.2-55.2v96.4c-4.3,2.1-7.3,6.5-7.3,11.6c0,1.9,0.4,3.6,1.1,5.2l-46,55V465.1z M378.2,505.9
					c0.7-1.6,1.1-3.3,1.1-5.2c0-5.1-3-9.5-7.3-11.6v-96.4l46.2,55.2c-0.8,1.7-1.3,3.6-1.3,5.6c0,5.1,3,9.5,7.3,11.6v95.8
					L378.2,505.9z M435.5,465.1c4.3-2.1,7.3-6.5,7.3-11.6c0-2-0.5-3.9-1.3-5.6l46.2-55.2v96.4c-4.3,2.1-7.3,6.5-7.3,11.6
					c0,1.9,0.4,3.6,1.1,5.2l-46,55V465.1L435.5,465.1z M505.2,505.9c0.7-1.6,1.1-3.3,1.1-5.2c0-5.1-3-9.5-7.3-11.6v-96.4l46.2,55.2
					c-0.8,1.7-1.3,3.6-1.3,5.6c0,5.1,3,9.5,7.3,11.6v95.8L505.2,505.9z M493.3,365.4c-7.1,0-12.9,5.8-12.9,12.9c0,1.5,0.3,3,0.8,4.4
					l-48.6,58.1c-0.9-0.2-1.8-0.3-2.7-0.3c-0.9,0-1.9,0.1-2.7,0.3l-48.6-58.1c0.5-1.4,0.8-2.8,0.8-4.4c0-7.1-5.8-12.9-12.9-12.9
					s-12.9,5.8-12.9,12.9c0,1.5,0.3,3,0.8,4.4l-48.6,58.1c-0.9-0.2-1.8-0.3-2.7-0.3c-7.1,0-12.9,5.8-12.9,12.9c0,5.1,3,9.5,7.3,11.6
					v98.3c-4.3,2.1-7.3,6.5-7.3,11.6c0,7.1,5.8,12.9,12.9,12.9c7.1,0,12.9-5.8,12.9-12.9c0-1.5-0.3-2.9-0.7-4.3l48.1-57.5
					c1,0.3,2.1,0.4,3.2,0.4c1.1,0,2.2-0.2,3.2-0.4l48.1,57.5c-0.5,1.3-0.7,2.8-0.7,4.3c0,7.1,5.8,12.9,12.9,12.9s12.9-5.8,12.9-12.9
					c0-1.5-0.3-2.9-0.7-4.3l48.1-57.5c1,0.3,2.1,0.4,3.2,0.4c1.1,0,2.2-0.2,3.2-0.4l48.1,57.5c-0.5,1.3-0.7,2.8-0.7,4.3
					c0,7.1,5.8,12.9,12.9,12.9c7.1,0,12.9-5.8,12.9-12.9c0-5.1-3-9.5-7.3-11.6v-98.3c4.3-2.1,7.3-6.5,7.3-11.6
					c0-7.1-5.8-12.9-12.9-12.9c-0.9,0-1.9,0.1-2.7,0.3l-48.6-58.1c0.5-1.4,0.8-2.8,0.8-4.4C506.3,371.2,500.5,365.4,493.3,365.4z"/>
			</defs>
			<clipPath id="SVGID_00000108311543952664311380000000045320009180061359_">
				<use xlink:href="#SVGID_00000148648030745650009810000016841665713908838037_"  style="overflow:visible;"/>
			</clipPath>
			
				<linearGradient id="SVGID_00000158008231867035192890000003030329424512290944_" gradientUnits="userSpaceOnUse" x1="579.5306" y1="-106.7608" x2="580.2863" y2="-106.7608" gradientTransform="matrix(551.9724 -520.474 520.474 551.9724 -264074.25 361211.125)">
				<stop  offset="0" style="stop-color:#00FFC3"/>
				<stop  offset="1" style="stop-color:#0072EB"/>
			</linearGradient>
			
				<polygon style="clip-path:url(#SVGID_00000108311543952664311380000000045320009180061359_);fill:url(#SVGID_00000158008231867035192890000003030329424512290944_);" points="
				178.8,470.2 438,225.7 680.8,483.2 421.6,727.6 			"/>
		</g>
	</g>
</g>
<line class="st8" x1="74.2" y1="301.7" x2="1227.8" y2="301.7"/>
</svg>
